# xmcd
#
# Track frame offsets:
#	150
#	5449
#	37070
#	63634
#	127145
#	183213
#	218111
#
# Disc length: 3126 seconds
#
# Revision: 1
# Processed by: cddbd v1.5.2PL0 Copyright (c) Steve Scherf et al.
# Submitted via: audiograbber 1.83.01
#
DISCID=640c3407
DTITLE=Grateful Dead - 70-03-21A Capitol Theatre, Port Chester NY
DYEAR=1900
DGENRE=
TTITLE0=Tuning
TTITLE1=Cosmic Charlie
TTITLE2=St Stephen
TTITLE3=Not Fade Away
TTITLE4=Midnight Hour
TTITLE5=Turn On Your Lovelight
TTITLE6=And We Bid You Goodnight
EXTD=
EXTT0=
EXTT1=
EXTT2=
EXTT3=
EXTT4=
EXTT5=
EXTT6=
PLAYORDER=
